#N canvas -9 0 3192 1820 10;
#X msg 479 449 \; pd dsp 1;
#X msg 598 434 \; pd dsp 0;
#X obj 128 188 udpreceive 12000;
#X obj 137 241 oscparse;
#X obj 127 363 unpack s f;
#X obj 130 418 expr ($f1 -0) / (670-0) * (2000-200) + 200;
#X obj 131 473 osc~;
#X obj 131 533 *~ 0.5;
#X obj 132 591 dac~;
#X obj 128 296 route /distance;
#X obj 337 228 print all_messages;
#X obj 432 345 select 10000 -10000;
#X connect 2 0 3 0;
#X connect 3 0 9 0;
#X connect 4 1 5 0;
#X connect 4 1 11 0;
#X connect 5 0 6 0;
#X connect 6 0 7 0;
#X connect 7 0 8 0;
#X connect 9 1 10 0;
#X connect 9 1 4 0;
#X connect 11 1 0 0;
#X connect 11 2 1 0;
