#N canvas 245 245 3200 1820 12;
#X obj 493 350 udpreceive 800;
#X obj 512 438 oscparse;
#X obj 500 544 route /distance;
#X obj 531 636 float;
#X obj 538 908 osc~;
#X obj 520 1006 *~ 0.2;
#X obj 530 1099 dac~;
#X obj 419 754 expr ($f1 - 0) / (670 - 0) * (2000 - 200) + 200;
#X connect 0 0 1 0;
#X connect 1 0 2 0;
#X connect 2 0 3 0;
#X connect 3 0 7 0;
#X connect 4 0 5 0;
#X connect 5 0 6 0;
#X connect 7 0 4 0;
