#N canvas 23 113 601 660 10;
#X obj 40 170 udpreceive 12000;
#X obj 40 220 oscparse;
#X obj 40 270 route /randomValue;
#X obj 40 370 expr ($f1 - 0) / (670-0) * (2000-200) + 200;
#X obj 40 420 osc~;
#X obj 40 470 *~ 0.5;
#X obj 40 520 dac~;
#X obj 40 320 unpack s f;
#X msg 21 44 \; pd dsp 1;
#X msg 21 103 \; pd dsp 0;
#X text 100 40 <-Click to start DSP;
#X text 100 102 <-Click to stop DSP;
#X connect 0 0 1 0;
#X connect 1 0 2 0;
#X connect 2 1 7 0;
#X connect 3 0 4 0;
#X connect 4 0 5 0;
#X connect 5 0 6 0;
#X connect 5 0 6 1;
#X connect 7 1 3 0;
