#N canvas 0 0 450 300 10; 
#X obj 100 50 udpreceive 12000; 
#X obj 100 100 oscparse; 
#X obj 100 150 route /randomValue; 
#X obj 100 200 float; 
#X obj 100 250 expr ($f1 - 0) / (670-0) * (2000-200) + 200; 
#X obj 100 300 osc~; #X obj 100 350 *~ 0.5; 
#X obj 100 400 dac~; #X connect 0 0 1 0; 
#X connect 1 0 2 0; #X connect 2 1 3 0; 
#X connect 3 0 4 0; #X connect 4 0 5 0; 
#X connect 5 0 6 0; #X connect 6 0 7 0;