#N canvas 15 0 3168 1805 10;
#X msg 19 22 \; pd dsp 1;
#X msg 27 77 \; pd dsp 0;
#X text 98 18 <-Click to start DSP;
#X text 98 80 <-Click to stop DSP;
#X obj 128 188 udpreceive 12000;
#X obj 126 240 oscparse;
#X obj 127 363 unpack s f;
#X obj 130 418 expr ($f1 -0) / (670-0) * (2000-200) + 200;
#X obj 131 473 osc~;
#X obj 131 533 *~ 0.5;
#X obj 132 591 dac~;
#X obj 128 296 route /distance;
#X msg 455 446 \; pd dsp 0;
#X obj 459 544 osc~;
#X obj 470 354 select 10000;
#X obj 560 309 osc~;
#X obj 571 119 select 11000;
#X msg 571 206 \; pd dsp 1;
#X text 650 202 Start sound;
#X text 526 449 Stop Sound;
#X connect 4 0 5 0;
#X connect 5 0 11 0;
#X connect 6 1 7 0;
#X connect 6 1 14 0;
#X connect 6 1 16 0;
#X connect 7 0 8 0;
#X connect 8 0 9 0;
#X connect 9 0 10 0;
#X connect 9 0 10 1;
#X connect 11 1 6 0;
#X connect 12 0 13 0;
#X connect 14 0 12 0;
#X connect 16 0 17 0;
#X connect 17 0 15 0;
