#N canvas -8 0 1920 966 10;
#X msg 19 22 \; pd dsp 1;
#X msg 27 77 \; pd dsp 0;
#X text 98 18 <-Click to start DSP;
#X text 98 80 <-Click to stop DSP;
#X obj 65 143 udpreceive 12000;
#X obj 63 195 oscparse;
#X obj 65 251 route /distance;
#X msg 93 479 \; pd dsp 0;
#X msg 311 469 \; pd dsp 1;
#X text 371 476 Start sound;
#X text 164 482 Stop Sound;
#X obj 95 552 osc~;
#X obj 316 542 osc~;
#X obj 168 289 unpack s f;
#X obj 726 536 osc~;
#X obj 728 595 dac~;
#X obj 483 672 dac~;
#X obj 506 395 moses 0;
#X obj 473 450 * -1;
#X obj 217 379 select 10000 11000;
#X text 389 562 Right Side;
#X text 782 497 Left Side;
#X obj 482 597 osc~;
#X obj 725 447 expr ($f1 / 670) * 200 + 50;
#X obj 470 516 expr ($f1 / 670) * 1000 + 500;
#X connect 4 0 5 0;
#X connect 5 0 6 0;
#X connect 6 1 13 0;
#X connect 7 0 11 0;
#X connect 8 0 12 0;
#X connect 13 1 19 0;
#X connect 13 1 17 0;
#X connect 14 0 15 0;
#X connect 14 0 15 1;
#X connect 17 0 18 0;
#X connect 17 1 23 0;
#X connect 18 0 24 0;
#X connect 19 0 7 0;
#X connect 19 1 8 0;
#X connect 22 0 16 0;
#X connect 22 0 16 1;
#X connect 23 0 14 0;
#X connect 24 0 22 0;
